<svg xmlns="http://www.w3.org/2000/svg" width="12" height="12" viewBox="0 0 12 12" fill="none">
    <path d="M2.25 4.28571H6M1 2H3.5M2.25 2V8.28571C2.25 8.43727 2.31585 8.58261 2.43306 8.68978C2.55027 8.79694 2.70924 8.85714 2.875 8.85714H6M6 3.71429C6 3.56273 6.06585 3.41739 6.18306 3.31022C6.30027 3.20306 6.45924 3.14286 6.625 3.14286H10.375C10.5408 3.14286 10.6997 3.20306 10.8169 3.31022C10.9342 3.41739 11 3.56273 11 3.71429V4.85714C11 5.0087 10.9342 5.15404 10.8169 5.2612C10.6997 5.36837 10.5408 5.42857 10.375 5.42857H6.625C6.45924 5.42857 6.30027 5.36837 6.18306 5.2612C6.06585 5.15404 6 5.0087 6 4.85714V3.71429ZM6 8.28571C6 8.13416 6.06585 7.98882 6.18306 7.88165C6.30027 7.77449 6.45924 7.71429 6.625 7.71429H10.375C10.5408 7.71429 10.6997 7.77449 10.8169 7.88165C10.9342 7.98882 11 8.13416 11 8.28571V9.42857C11 9.58012 10.9342 9.72547 10.8169 9.83263C10.6997 9.9398 10.5408 10 10.375 10H6.625C6.45924 10 6.30027 9.9398 6.18306 9.83263C6.06585 9.72547 6 9.58012 6 9.42857V8.28571Z" stroke="#7C7C7C" stroke-linecap="round" stroke-linejoin="round"/>
</svg>