<svg xmlns="http://www.w3.org/2000/svg" width="12" height="12" viewBox="0 0 12 12" fill="none">
    <path d="M7.125 1.21875C7.19957 1.21882 7.27106 1.24849 7.32375 1.30125L9.94875 3.92625C10.0015 3.97894 10.0312 4.05043 10.0312 4.125M7.125 1.21875H2.625C2.45095 1.21875 2.28403 1.28789 2.16096 1.41096C2.03789 1.53403 1.96875 1.70095 1.96875 1.875V10.125C1.96875 10.299 2.03789 10.466 2.16096 10.589C2.28403 10.7121 2.45095 10.7812 2.625 10.7812H9.375C9.54905 10.7812 9.71597 10.7121 9.83904 10.589C9.96211 10.466 10.0312 10.299 10.0312 10.125V4.125M7.125 1.21875H6.84375V4.125C6.84375 4.19959 6.87338 4.27113 6.92613 4.32387C6.97887 4.37662 7.05041 4.40625 7.125 4.40625H10.0312V4.125" stroke="#7C7C7C"/>
</svg>